<svg version="1.2" xmlns="http://www.w3.org/2000/svg" viewBox="0 0 20 16" width="20" height="16">
	<title>Novo Projeto</title>
	<style>
		.s0 { fill: #000000 } 
	</style>
	<path id="Background" fill-rule="evenodd" class="s0" d="m7.1 11.2c0.1 0.1 0.2 0.1 0.2 0.2 0 0-0.2 0.1-0.3 0-0.1 0-0.1 0-0.1-0.1 0 0 0.1-0.1 0.2-0.1zm1.6 0.1q0 0.1-0.2 0.2c-0.1 0-0.2-0.1-0.2-0.1q0-0.1 0.2-0.1c0.1 0 0.2 0 0.2 0zm-0.7 0.1c0 0.1-0.1 0.1-0.2 0.1q-0.2 0-0.2-0.1c0 0 0.1-0.1 0.2-0.1 0.1 0 0.2 0.1 0.2 0.1zm-2.3-1.1q0.1 0 0 0.1c0 0-0.1 0-0.1 0q-0.1-0.1-0.1-0.2c0.1 0 0.2 0 0.2 0.1zm-0.4-0.3q0.1 0 0.1 0.1-0.1 0.1-0.2 0-0.1 0-0.1-0.1 0.1 0 0.2 0zm1.2 1c0.1 0 0.1 0.1 0.1 0.2-0.1 0-0.2 0-0.2-0.1-0.1 0-0.1-0.1-0.1-0.1 0.1-0.1 0.2-0.1 0.2 0zm-0.4-0.4q0.1 0.1 0 0.2c0 0-0.1 0-0.2-0.1q-0.1-0.1 0-0.1c0.1-0.1 0.1 0 0.2 0z"/>
	<path id="Forma 1" fill-rule="evenodd" class="s0" d="m20 8c0 3.2-2.7 6-6.8 6.9-0.5 0.1-0.7-0.1-0.7-0.3 0-0.3 0-1.5 0-2.4 0-0.7-0.3-1.1-0.6-1.4 2.2-0.2 4.6-0.4 4.6-3.2 0-0.7-0.4-1.1-1-1.7 0.1-0.1 0.4-0.9-0.2-1.9-0.8-0.2-2.7 0.8-2.7 0.8-0.8-0.2-1.7-0.3-2.6-0.3-0.8 0-1.7 0.1-2.5 0.3 0 0-1.9-1-2.8-0.8-0.5 1-0.2 1.8-0.1 1.9-0.6 0.6-0.9 1-0.9 1.7 0 2.8 2.2 3.1 4.5 3.2-0.3 0.2-0.6 0.5-0.7 1-0.5 0.2-2 0.5-2.9-0.6-0.5-0.7-1.6-0.7-1.6-0.7-0.9-0.1 0 0.4 0 0.4 0.6 0.2 1.1 1.1 1.1 1.1 0.6 1.2 3.4 0.8 3.4 0.8 0 0.6 0 1.6 0 1.8 0 0.2-0.1 0.4-0.7 0.3-4-0.9-6.8-3.7-6.8-6.9 0-4 4.3-7 9.9-7 5.6 0 10.1 3 10.1 7zm-14.3 4c0.1 0.1 0.2 0.1 0.2 0.2-0.1 0-0.2 0.1-0.3 0-0.1 0-0.2 0-0.2-0.1 0.1-0.1 0.2-0.1 0.3-0.1zm1.8 0.1c0 0.1-0.1 0.1-0.2 0.2-0.2 0-0.3-0.1-0.3-0.1q0-0.1 0.2-0.1c0.1-0.1 0.2 0 0.3 0zm-0.8 0.1c0 0.1-0.1 0.1-0.2 0.1q-0.2 0-0.2-0.1c0 0 0-0.1 0.2-0.1 0.1 0 0.2 0.1 0.2 0.1zm-2.6-1.2q0.1 0.1 0.1 0.1c-0.1 0.1-0.2 0-0.3 0q-0.1-0.1 0-0.2c0.1 0 0.2 0 0.2 0.1zm-0.4-0.3q0.1 0 0.1 0.1c-0.1 0-0.2 0.1-0.2 0q-0.2 0-0.1-0.1 0 0 0.2 0zm1.4 1.1c0 0 0.1 0.1 0 0.1 0 0.1-0.2 0.1-0.3 0-0.1 0-0.1-0.1 0-0.2 0 0 0.2 0 0.3 0.1zm-0.5-0.4q0.1 0.1 0 0.2c-0.1 0-0.2 0-0.3-0.1q-0.1-0.1 0-0.2c0.1 0 0.2 0 0.3 0.1z"/>
</svg>